<?xml version="1.0" standalone="no"?>
<!DOCTYPE svg PUBLIC "-//W3C//DTD SVG 20010904//EN"
 "http://www.w3.org/TR/2001/REC-SVG-20010904/DTD/svg10.dtd">
<svg version="1.0" xmlns="http://www.w3.org/2000/svg"
 width="516.000000pt" height="516.000000pt" viewBox="0 0 516.000000 516.000000"
 preserveAspectRatio="xMidYMid meet">
<metadata>
Created by potrace 1.14, written by Peter Selinger 2001-2017
</metadata>
<g transform="translate(0.000000,516.000000) scale(0.100000,-0.100000)"
fill="#000000" stroke="none">
<path d="M2487 4794 c-1 -1 -36 -4 -77 -7 -135 -9 -221 -19 -286 -31 -12 -2
-43 -7 -70 -11 -54 -7 -89 -13 -89 -15 0 -1 -9 -3 -20 -5 -11 -1 -42 -6 -70
-10 -27 -4 -53 -9 -56 -11 -3 -2 -21 -6 -40 -9 -19 -3 -54 -11 -79 -16 -25 -6
-54 -12 -65 -15 -19 -3 -29 -6 -95 -20 -14 -3 -36 -7 -50 -10 -14 -3 -43 -10
-65 -15 -22 -5 -49 -12 -60 -14 -11 -3 -83 -21 -160 -40 -77 -20 -149 -38
-160 -40 -22 -5 -169 -46 -280 -77 -38 -11 -74 -24 -79 -28 -5 -5 -8 -87 -7
-182 1 -95 1 -180 1 -188 0 -39 1 -77 4 -100 1 -14 -2 -31 -7 -37 -5 -7 -6
-13 -1 -13 5 0 10 -69 11 -153 3 -256 19 -651 37 -937 13 -187 16 -237 21
-285 3 -27 7 -77 10 -110 3 -33 8 -85 11 -115 3 -30 7 -71 9 -90 2 -19 4 -35
5 -35 0 0 3 -20 5 -45 3 -25 8 -65 11 -90 3 -25 8 -58 10 -75 2 -16 9 -54 15
-83 6 -29 8 -60 5 -68 -3 -8 -2 -14 3 -14 4 0 8 -6 9 -12 2 -25 11 -83 16
-106 11 -43 37 -168 38 -179 0 -5 4 -16 10 -26 5 -10 12 -31 14 -45 7 -36 84
-215 96 -223 5 -3 9 -10 9 -15 -1 -5 6 -17 14 -27 8 -9 15 -20 15 -23 0 -25
211 -256 274 -299 16 -11 36 -27 45 -36 30 -29 195 -135 292 -187 143 -77 403
-180 491 -196 15 -2 32 -7 36 -10 5 -3 28 -8 52 -11 23 -3 46 -7 50 -10 5 -3
31 -8 57 -11 26 -2 68 -7 93 -10 68 -7 218 -7 280 1 30 4 69 9 85 10 17 2 30
4 30 5 0 2 9 4 20 5 51 6 199 47 290 80 55 19 107 37 116 39 9 3 25 9 35 14
11 6 69 34 129 63 318 151 580 371 724 605 17 28 31 59 31 68 0 9 4 16 9 16
15 0 95 255 106 342 2 15 6 31 8 35 3 4 8 24 11 43 3 19 7 44 10 55 2 11 7 40
11 65 4 25 9 52 10 60 9 50 27 176 30 212 1 24 4 43 5 43 1 0 4 25 6 55 8 86
12 125 14 125 0 0 3 23 5 50 2 28 6 82 9 120 3 39 9 108 12 155 3 47 7 112 10
145 6 80 14 246 19 375 2 58 4 105 5 105 2 0 21 725 20 773 0 23 0 72 1 85 0
6 -1 29 -3 50 -3 20 -1 37 4 37 4 0 3 11 -2 25 -6 15 -6 27 0 30 5 3 6 15 1
28 -5 13 -5 30 0 39 5 10 5 19 0 22 -4 3 -7 16 -4 28 4 29 -7 47 -32 51 -11 1
-25 6 -31 9 -6 4 -25 10 -42 13 -18 3 -51 12 -75 19 -23 8 -58 18 -77 22 -19
4 -39 9 -45 10 -54 15 -173 46 -185 49 -8 2 -53 13 -100 25 -47 12 -94 24
-105 26 -11 2 -32 6 -47 10 -15 3 -30 5 -33 5 -2 0 -19 5 -37 10 -18 6 -46 13
-63 16 -16 2 -82 16 -145 29 -63 14 -149 32 -190 39 -70 14 -91 17 -180 31
-19 3 -48 7 -65 10 -16 3 -46 7 -65 9 -19 2 -55 6 -80 10 -84 12 -385 26 -393
19z"/>
</g>
</svg>
